<svg id="Layer_1" data-name="Layer 1" xmlns="http://www.w3.org/2000/svg" viewBox="0 0 910 91.6313"><defs><style>.cls-1{fill:#d3d3d3;}.cls-2{fill:none;stroke:#d3d3d3;stroke-linecap:round;stroke-miterlimit:10;}</style></defs><path class="cls-1" d="M955,90c-4.9165.5065-9.8055,1.0635-14.62,1.91a87.9586,87.9586,0,0,0-14.04,3.6182c-1.1183.4175-2.2212.867-3.3118,1.33-1.0659.5157-2.1563.9747-3.176,1.5608a40.7465,40.7465,0,0,0-5.9285,3.7423c-3.7632,2.7793-6.9853,6.3-10.8089,9.7108a49.1312,49.1312,0,0,1-6.2238,4.8044,37.8912,37.8912,0,0,1-7.2011,3.5374,58.5446,58.5446,0,0,1-15.3331,3.0692l-3.83.2088c-1.2767.0342-2.6208.0484-3.88.0033-2.5637-.0524-5.0565-.2263-7.5564-.3976-4.9829-.3716-9.91-.8745-14.8284-1.4061-39.262-4.4632-78.193-9.8374-117.3235-13.4609-39.0823-3.6225-78.3315-6.1181-117.3237-4.585-19.4562.8651-38.8969,2.7269-57.6047,7.1442-4.6427,1.18-9.28,2.4011-13.758,3.9845-2.2742.716-4.4454,1.641-6.6658,2.4666-2.1454.9609-4.3476,1.8305-6.413,2.92-2.1292.9931-4.1135,2.1932-6.15,3.3179-1.9373,1.2517-3.915,2.4591-5.7119,3.8712a52.6022,52.6022,0,0,0-9.7364,9.3835l-3.6057,4.5775-3.5441-4.5775a52.7412,52.7412,0,0,0-9.6632-9.4793c-1.7884-1.4312-3.7586-2.6582-5.6905-3.93-2.0278-1.1488-4.0159-2.3563-6.145-3.3615-2.0664-1.1013-4.2691-1.982-6.4162-2.9544-2.2212-.8367-4.3944-1.773-6.67-2.5-4.481-1.6055-9.1219-2.8483-13.769-4.05-18.7234-4.4894-38.1845-6.4923-57.6651-7.3-19.5024-.8036-39.0962-.4685-58.67.4705q-29.3642,1.45-58.6977,4.3682c-19.5514,1.8847-39.0688,4.2257-58.6017,6.5729-19.5356,2.3694-39.0393,4.978-58.6976,7.1293-4.9187.5315-9.8457,1.0343-14.8287,1.4058-2.5.1713-4.9929.3452-7.5568.3975-1.259.0451-2.6034.0308-3.88-.0034l-3.83-.2089a58.5555,58.5555,0,0,1-15.3347-3.07,37.8857,37.8857,0,0,1-7.2021-3.5383,49.1465,49.1465,0,0,1-6.2243-4.8053c-3.8238-3.4109-7.0453-6.9319-10.8079-9.7112a40.7666,40.7666,0,0,0-5.9276-3.7425c-1.02-.5861-2.11-1.0451-3.1758-1.5609-1.09-.4628-2.1931-.9124-3.3113-1.33a87.9583,87.9583,0,0,0-14.04-3.62C54.8057,91.0582,49.9161,90.5181,45,90c9.8392-.6113,19.8795-.4827,29.74,2.0593a47.2448,47.2448,0,0,1,14.1011,6.117,62.9153,62.9153,0,0,1,6.1762,4.5664c1.94,1.6044,3.7637,3.2435,5.6106,4.7238a43.2077,43.2077,0,0,0,5.6629,3.9361,37.4157,37.4157,0,0,0,6.16,2.6972,52.0017,52.0017,0,0,0,13.6273,2.28l3.5495.088c1.1834.0106,2.3034.0069,3.5038-.0557,2.3589-.0857,4.7775-.2932,7.1865-.4984,4.8319-.44,9.6953-1.0167,14.5583-1.6237,9.73-1.22,19.4734-2.5916,29.2255-3.94l29.2908-3.9774q29.3135-3.9524,58.794-6.9559c19.651-1.9765,39.3551-3.6464,59.1267-4.5792,19.7684-.9389,39.6019-1.2734,59.463-.4468,19.8444.8654,39.7788,2.78,59.4,7.4516,4.8873,1.2492,9.7738,2.5483,14.5729,4.2513,2.4184.77,4.7793,1.7707,7.1652,2.67,2.3426,1.0476,4.7179,1.9993,7.0063,3.2048,2.3282,1.0979,4.562,2.433,6.8164,3.7141,2.1886,1.423,4.4,2.8052,6.47,4.4435a61.4252,61.4252,0,0,1,11.3686,11.1415h-7.15A61.6457,61.6457,0,0,1,507.7206,120.03c2.0613-1.6574,4.2651-3.0592,6.4482-4.5028,2.2461-1.3053,4.4837-2.6477,6.8118-3.7577,2.2895-1.2172,4.6652-2.18,7.01-3.2389,2.3867-.91,4.75-1.9221,7.1693-2.7032,4.8025-1.7252,9.6922-3.0458,14.5839-4.3165,19.6366-4.7437,39.5914-6.7994,59.46-7.6077,19.8814-.82,39.7286-.4647,59.5016.5578,19.7745,1.0209,39.4872,2.6387,59.1318,4.7219,19.6465,2.0652,39.2355,4.4983,58.78,7.1141,19.5382,2.63,39.0431,5.5273,58.5058,8.0007,4.8631.6069,9.7266,1.1833,14.5586,1.6234,2.4091.2052,4.8278.4126,7.1869.4983,1.2005.0626,2.3206.0663,3.5042.0556l3.55-.0882a52.0052,52.0052,0,0,0,13.6289-2.2806,37.42,37.42,0,0,0,6.16-2.6981,43.21,43.21,0,0,0,5.6634-3.937c1.847-1.4805,3.6709-3.12,5.61-4.7241a62.9132,62.9132,0,0,1,6.1754-4.5666,47.2472,47.2472,0,0,1,14.1-6.1174C935.1208,89.52,945.1608,89.39,955,90Z" transform="translate(-45 -89.6946)"/><path class="cls-1" d="M625,115.478c-6.171.46-12.35.1925-18.49.323-6.1439.077-12.269.24-18.3585.706a160.2993,160.2993,0,0,0-35.7109,6.1092,101.5922,101.5922,0,0,0-16.497,6.6642,67.2206,67.2206,0,0,0-14.3061,10.0181A60.5766,60.5766,0,0,0,510.683,152.629a72.6164,72.6164,0,0,0-6.8381,15.9478l-3.837,12.7492-3.8528-12.7492a72.4748,72.4748,0,0,0-6.8435-15.9445,59.9066,59.9066,0,0,0-10.961-13.3208,69.0163,69.0163,0,0,0-14.3087-10.0032,99.5231,99.5231,0,0,0-16.4861-6.6806,137.4187,137.4187,0,0,0-17.59-4.0459,180.7975,180.7975,0,0,0-18.1178-2.0642c-6.0892-.4669-12.2142-.6337-18.3581-.71-6.14-.1327-12.3186.1341-18.49-.3294,3.0787-.1659,6.1268-.569,9.1909-.9239q4.5945-.5187,9.21-.9627c6.1553-.5851,12.3474-.8943,18.5633-1a178.5959,178.5959,0,0,1,18.6861.7921,128.0911,128.0911,0,0,1,18.5822,3.231,94.2444,94.2444,0,0,1,17.9865,6.3964A72.8138,72.8138,0,0,1,483.4,133.6477a66.2018,66.2018,0,0,1,12.6618,14.8783,79.4889,79.4889,0,0,1,7.7827,17.853h-7.69a79.3515,79.3515,0,0,1,7.7881-17.85,65.5737,65.5737,0,0,1,12.668-14.8687,74.5162,74.5162,0,0,1,16.1836-10.622,92.7033,92.7033,0,0,1,17.9757-6.4128,127.3361,127.3361,0,0,1,18.5805-3.23,177.5929,177.5929,0,0,1,18.6848-.7939c6.2155.1046,12.4076.41,18.5627.996q4.6161.4405,9.21.96C618.873,114.9113,621.9213,115.3136,625,115.478Z" transform="translate(-45 -89.6946)"/><path class="cls-2" d="M500,236.4092" transform="translate(-45 -89.6946)"/><path class="cls-2" d="M500-14.5" transform="translate(-45 -89.6946)"/></svg>